<svg version="1.1" id="Layer_1" xmlns="http://www.w3.org/2000/svg" xmlns:xlink="http://www.w3.org/1999/xlink" x="0px" y="0px"
	 viewBox="0 0 512 512" style="enable-background:new 0 0 512 512;" xml:space="preserve">
<g>
	<g>
		<circle cx="380.383" cy="43.589" r="43.589"/>
	</g>
</g>
<g>
	<g>
		<path d="M427.54,136.805c-0.048-18.782-14.971-30.518-30.511-30.199l-38.898,0.797c-16.374,0.021-29.628,14.235-29.605,31.747
			l0.033,25.426l23.433-24.909l-29.797,54.669l-42.144,25.716l14.441,8.912c7.298,4.504,12.387,11.229,14.935,18.764l37.498-22.882
			c2.919-1.78,5.317-4.299,6.952-7.3l32.295-59.251l-16.798,67.699c-1.953,7.873-7.44,10.371-13.255,13.92l-26.969,16.743v230.306
			c0,13.647,11.532,24.709,25.179,24.709c5.11,0,9.856-1.552,13.797-4.208c-3.59-5.994-5.657-13.005-5.657-20.501V301.301
			l15.259-0.242v64.555v121.351c0,13.647,11.063,24.709,24.709,24.709c13.646,0,25.102-11.062,25.102-24.709
			C427.54,479.062,427.547,139.613,427.54,136.805z"/>
	</g>
</g>
<g>
	<g>
		<path d="M142.215,488.092V362.825h-23.265v125.267c0,13.204,10.704,23.908,23.908,23.908c2.231,0,4.382-0.328,6.431-0.901
			C144.826,504.533,142.215,496.613,142.215,488.092z"/>
	</g>
</g>
<g>
	<g>
		<path d="M159.345,362.825v125.267c0,13.203,10.704,23.908,23.908,23.908c13.204,0,23.908-10.704,23.908-23.908V362.825H159.345z"
			/>
	</g>
</g>
<g>
	<g>
		<path d="M165.87,12.444c-22.804,0-41.291,18.487-41.291,41.291c0,22.9,18.597,41.291,41.291,41.291
			c22.722,0,41.291-18.42,41.291-41.291C207.161,30.931,188.673,12.444,165.87,12.444z"/>
	</g>
</g>
<g>
	<g>
		<path d="M285.726,243.167l-70.547-43.538l-30.773-53.724l35.255,36.688l-9.372-51.221c-2.231-12.193-12.117-21.004-23.606-21.004
			c-14.797,0-25.204,0-41.626,0c-11.513,0-21.371,8.787-23.606,21.004L84.655,332.466c-1.258,6.874,3.64,13.229,10.036,13.229
			c31.097,0,111.28,0,142.356,0c6.436,0,11.292-6.368,10.037-13.229l-10.223-55.867l-57.982-35.939
			c-4.4-2.727-7.615-7.008-9.009-11.993l-17.937-64.16l32.56,57.152c1.711,3.004,4.15,5.531,7.092,7.347l74.486,46.007
			c8.792,5.425,20.322,2.699,25.751-6.097C297.249,260.122,294.519,248.594,285.726,243.167z"/>
	</g>
</g>
<g>
</g>
<g>
</g>
<g>
</g>
<g>
</g>
<g>
</g>
<g>
</g>
<g>
</g>
<g>
</g>
<g>
</g>
<g>
</g>
<g>
</g>
<g>
</g>
<g>
</g>
<g>
</g>
<g>
</g>
</svg>
