<?xml version="1.0" encoding="iso-8859-1"?>
<!-- Generator: Adobe Illustrator 19.0.0, SVG Export Plug-In . SVG Version: 6.00 Build 0)  -->
<svg version="1.1" id="Layer_1" xmlns="http://www.w3.org/2000/svg" xmlns:xlink="http://www.w3.org/1999/xlink" x="0px" y="0px"
	 viewBox="0 0 512.002 512.002" style="enable-background:new 0 0 512.002 512.002;" xml:space="preserve">
<g>
	<g>
		<path d="M219.529,74.302c9.59,1.581,17.94,7.112,23.149,15.076c10.328,15.791,5.982,37.094-9.938,47.507l-28.207,18.447v12.266
			l-52.427,34.115c-7.723,5.026-9.91,15.36-4.883,23.084c5.028,7.727,15.366,9.907,23.083,4.883l48.6-31.625
			c3.751,1.982,8.024,3.109,12.561,3.109c14.874,0,26.933-12.058,26.933-26.932V98.447
			C258.398,78.446,237.337,65.481,219.529,74.302z"/>
	</g>
</g>
<g>
	<g>
		<circle cx="200.294" cy="33.05" r="33.05"/>
	</g>
</g>
<g>
	<g>
		<path d="M160.831,89.131c-10.34,1.317-17.024,11.735-13.744,21.756l37.987-24.843L160.831,89.131z"/>
	</g>
</g>
<g>
	<g>
		<circle cx="75.119" cy="74.037" r="38.027"/>
	</g>
</g>
<g>
	<g>
		<path d="M229.421,98.05c-5.587-8.541-17.038-10.938-25.58-5.351l-81.109,53.046l-65.339,7.659l47.009-16.566
			c-5.844-4.933-13.681-7.453-21.85-6.298l-49.138,6.948c-15.218,2.152-25.81,16.232-23.658,31.45l22.374,141.036l20.143,84.666
			l-23.126,89.639c-3.059,11.859,4.075,23.953,15.933,27.012c11.869,3.06,23.955-4.084,27.012-15.933l24.498-94.963
			c0.902-3.496,0.936-7.16,0.1-10.671l-20.455-85.986l10.116-1.43l42.119,65.134l9.484,124.068
			c0.93,12.157,11.525,21.352,23.802,20.421c12.212-0.933,21.355-11.59,20.421-23.802l-9.913-129.686
			c-0.282-3.688-1.482-7.247-3.49-10.351l-35.013-54.144l-13.81-97.671l-58.254-6.164l69.659-8.166
			c2.842-0.333,5.568-1.322,7.963-2.889l84.751-55.427C232.612,118.044,235.007,106.591,229.421,98.05z"/>
	</g>
</g>
<g>
	<g>
		<path d="M502.309,329.389l-40.012-202.152c-2.431-12.282-13.15-21.115-25.671-21.115c-14.748,0-25.041,0-37.239,0
			c4.878,3.629,8.416,8.699,10.154,14.537c4.436,14.898-4.046,30.57-18.943,35.006c-3.152,0.939-5.786,1.148-8.798,1.18
			l-17.33,25.148l-65.057-1.099c-10.436-0.167-18.949,8.103-19.125,18.489c-0.175,10.387,8.104,18.95,18.49,19.125l75.14,1.27
			c0.107,0.001,0.212,0.002,0.319,0.002c6.178,0,11.972-3.037,15.487-8.136l40.332-58.523l-24.846,69.196
			c-3.619,10.078-13.291,16.566-23.695,16.407c-9.247-0.164-3.513-0.067-37.762-0.644l-18.074,91.312
			c-1.365,6.896,3.915,13.299,10.914,13.299c6.383,0,14.673,0,24.145,0v145.279c0,13.273,10.759,24.034,24.034,24.034
			c13.275,0,24.034-10.761,24.034-24.034v-145.28c3.456,0,6.921,0,10.377,0v145.279c0,13.273,10.759,24.034,24.034,24.034
			c13.275,0,24.034-10.761,24.034-24.034V342.688c9.472,0,17.761,0,24.145,0C498.375,342.688,503.673,336.276,502.309,329.389z"/>
	</g>
</g>
<g>
	<g>
		<polygon points="359.787,157.07 358.597,163.078 362.479,163.144 369.683,156.967 		"/>
	</g>
</g>
<g>
	<g>
		<path d="M395.234,126.776c-1.378-9.132-9.904-15.414-19.032-14.039l-28.596,4.318l-25.265-10.25l11.104,1.685
			c-4.669-8.002-13.34-13.384-23.274-13.384c-14.874,0-26.933,12.058-26.933,26.933v43.538c5.005-2.33,10.601-3.593,16.492-3.494
			l37.373,0.632v-6.841c-1.115-0.668-27.348-18.081-27.348-18.081l29.526,11.978c2.781,1.128,5.814,1.487,8.783,1.039l33.13-5.002
			C390.326,144.429,396.612,135.908,395.234,126.776z"/>
	</g>
</g>
<g>
	<g>
		<path d="M413.994,7.684c-21.842,0-39.731,16.874-41.372,38.297c-4.437-13.019-16.762-22.388-31.282-22.388
			c-18.253,0-33.05,14.797-33.05,33.05c-0.001,18.252,14.795,33.05,33.049,33.05c16.863,0,30.766-12.632,32.788-28.948
			c5.006,17.301,20.954,29.956,39.867,29.956c22.925,0,41.508-18.583,41.508-41.508C455.502,26.267,436.918,7.684,413.994,7.684z"/>
	</g>
</g>
<g>
</g>
<g>
</g>
<g>
</g>
<g>
</g>
<g>
</g>
<g>
</g>
<g>
</g>
<g>
</g>
<g>
</g>
<g>
</g>
<g>
</g>
<g>
</g>
<g>
</g>
<g>
</g>
<g>
</g>
</svg>
